#N canvas 652 32 788 765 10;
#N canvas 121 78 643 362 FaceOSC 0;
#X obj 237 195 s fromface;
#X obj 237 145 gate;
#X obj 237 121 r io;
#X obj 295 114 dumpOSC 8338;
#X obj 274 173 print;
#X obj 274 151 gate;
#X obj 274 94 r print;
#N canvas 224 30 1156 827 FaceOSC_unpack 0;
#X obj 179 252 route /pose/position /pose/scale /pose/orientation;
#X obj 179 275 unpack f f;
#X obj 377 282 unpack f f f;
#X obj 98 39 route /gesture/mouth/width /gesture/mouth/height;
#X obj 436 38 route /gesture/eyebrow/left /gesture/eyebrow/right /gesture/eye/left
/gesture/eye/right;
#X obj 571 167 route /gesture/jaw /gesture/nostrils;
#X obj 677 199 / 10;
#X obj 8 35 route /found;
#X obj 179 231 r fromface;
#X obj 8 12 r fromface;
#X obj 98 9 r fromface;
#X obj 571 138 r fromface;
#X obj 436 8 r fromface;
#X obj 680 227 pack f f;
#X obj 436 180 sel 1;
#X obj 436 215 s sPluck;
#X obj 436 107 i;
#X obj 436 130 edge;
#X msg 471 154 0;
#X msg 436 155 1;
#X obj 98 185 s feedback;
#X obj 236 341 s fcutoff;
#X floatatom 300 340 5 0 0 0 - - -;
#X floatatom 278 374 5 0 0 0 - - -;
#X floatatom 278 418 5 0 0 0 - - -;
#X obj 278 437 s gain;
#X floatatom 411 327 10 0 0 0 - - -;
#X obj 411 426 s panning;
#X obj 411 306 expr ($f1*100)+50;
#X obj 411 351 i;
#X floatatom 179 300 5 0 0 0 - - -;
#X floatatom 236 299 5 0 0 0 - - -;
#X floatatom 461 85 5 0 0 0 - - -;
#X obj 436 84 / 8;
#X floatatom 411 404 5 0 0 0 - - -;
#X obj 411 377 clip 0 100;
#X floatatom 98 63 5 0 0 0 - - -;
#X floatatom 98 109 5 0 0 0 - - -;
#X obj 98 132 clip 0 0.5;
#X floatatom 98 157 5 0 0 0 - - -;
#X obj 98 85 / 28;
#X floatatom 143 322 5 0 0 0 - - -;
#X obj 179 322 / 120;
#X obj 143 341 s delratio;
#X obj 236 320 expr ($f1 * 15);
#X obj 278 397 / 4;
#X connect 0 0 1 0;
#X connect 0 1 23 0;
#X connect 0 2 2 0;
#X connect 1 0 30 0;
#X connect 1 1 31 0;
#X connect 2 1 28 0;
#X connect 3 0 36 0;
#X connect 4 0 33 0;
#X connect 5 1 6 0;
#X connect 6 0 13 1;
#X connect 8 0 0 0;
#X connect 9 0 7 0;
#X connect 10 0 3 0;
#X connect 11 0 5 0;
#X connect 12 0 4 0;
#X connect 14 0 15 0;
#X connect 16 0 17 0;
#X connect 17 0 19 0;
#X connect 17 1 18 0;
#X connect 18 0 14 0;
#X connect 19 0 14 0;
#X connect 23 0 45 0;
#X connect 24 0 25 0;
#X connect 26 0 29 0;
#X connect 28 0 26 0;
#X connect 29 0 35 0;
#X connect 30 0 42 0;
#X connect 31 0 44 0;
#X connect 33 0 16 0;
#X connect 33 0 32 0;
#X connect 34 0 27 0;
#X connect 35 0 34 0;
#X connect 36 0 40 0;
#X connect 37 0 38 0;
#X connect 38 0 39 0;
#X connect 39 0 20 0;
#X connect 40 0 37 0;
#X connect 41 0 43 0;
#X connect 42 0 41 0;
#X connect 44 0 21 0;
#X connect 44 0 22 0;
#X connect 45 0 24 0;
#X restore 237 215 pd FaceOSC_unpack;
#X obj 386 149 route /found;
#X obj 386 170 sel 0 1;
#X msg 386 218 \; io 0 \;;
#X msg 405 260 \; io 1 \;;
#X obj 103 126 tgl 30 0 print print PRINT 35 7 0 15 -228856 -1 -1 0
1;
#X connect 1 0 0 0;
#X connect 2 0 1 0;
#X connect 3 0 1 1;
#X connect 3 0 5 1;
#X connect 3 0 8 0;
#X connect 5 0 4 0;
#X connect 6 0 5 0;
#X connect 8 0 9 0;
#X connect 9 0 10 0;
#X connect 9 1 11 0;
#X coords 0 -1 1 1 85 60 1 100 100;
#X restore 160 27 pd FaceOSC;
#N canvas 11 338 347 428 DSP_view 0;
#X obj 6 -100 dsp;
#X floatatom 6 -77 5 0 0 0 - - -;
#X floatatom 21 -55 5 0 0 0 - - -;
#X obj 21 -34 s dsppeak;
#X obj 6 -14 s dspmean;
#X obj 105 115 nbx 5 14 -1e+37 1e+37 0 0 dsppeak dsppeak DSP_Peak 0
-8 0 10 -262144 -1 -1 6 256;
#X obj 105 144 nbx 5 14 -1e+37 1e+37 0 0 dspmean dspmean DSP_Mean 0
-8 0 10 -262144 -1 -1 4.23 256;
#X connect 0 0 1 0;
#X connect 0 1 2 0;
#X connect 1 0 4 0;
#X connect 2 0 3 0;
#X coords 0 -1 1 1 85 60 2 100 100;
#X restore 5 27 pd DSP_view;
#N canvas 281 167 661 559 leapmotion 0;
#X obj -47 223 leapmotion;
#X obj -19 246 route hand tool;
#N canvas 73 127 793 547 flags 0;
#X obj 108 137 tgl 15 0 empty to_general general 17 7 0 10 -262144
-1 -1 0 1;
#X obj 108 179 tgl 15 0 empty to_palm_position palm_position 17 7 0
10 -262144 -1 -1 0 1;
#X obj 108 164 tgl 15 0 empty to_direction direction 17 7 0 10 -262144
-1 -1 0 1;
#X obj -49 220 outlet;
#X msg -49 152 general \$1;
#X msg -49 179 hands_direction \$1;
#X text 107 149 hands;
#X obj 109 117 tgl 15 0 empty flags_lm all_on/off 17 7 0 10 -258113
-1 -1 0 1;
#X msg -49 194 hands_palm_position \$1;
#X msg 225 132 \; to_general \$1 \; to_direction \$1 \; to_palm_position
\$1 \;;
#X connect 0 0 4 0;
#X connect 1 0 8 0;
#X connect 2 0 5 0;
#X connect 4 0 3 0;
#X connect 5 0 3 0;
#X connect 7 0 9 0;
#X connect 8 0 3 0;
#X coords 0 -1 1 1 120 100 1 100 100;
#X restore 187 123 pd flags;
#N canvas 415 24 450 300 general 0;
#X obj 169 75 unpack 0 0 0 0 0 0;
#X floatatom 169 122 10 0 0 0 frameID - -;
#X floatatom 169 142 10 0 0 0 timestamp - -;
#X floatatom 169 162 5 0 0 0 hands - -;
#X floatatom 169 182 5 0 0 0 fingers - -;
#X floatatom 169 202 5 0 0 0 tools - -;
#X floatatom 169 222 5 0 0 0 gestures - -;
#X obj 169 49 r general;
#X connect 0 0 1 0;
#X connect 0 1 2 0;
#X connect 0 2 3 0;
#X connect 0 3 4 0;
#X connect 0 4 5 0;
#X connect 0 5 6 0;
#X connect 7 0 0 0;
#X coords 0 -1 1 1 150 140 1 100 100;
#X restore 104 227 pd general;
#X obj -19 271 s hand;
#X obj -47 291 s general;
#N canvas 831 212 450 300 leapON 0;
#X obj 23 159 bng 15 250 50 0 empty empty empty 17 7 0 10 -262144 -1
-1;
#X obj 104 119 tgl 20 0 empty leapMotion ON_OFF 25 7 0 10 -262144 -1
-1 0 1;
#X obj 23 139 metro 50;
#X msg 41 162 info;
#X obj 23 228 outlet;
#X obj 104 142 bng 20 250 50 0 empty empty info 25 7 0 10 -262144 -1
-1;
#X obj 104 165 nbx 3 14 -1e+37 1e+37 0 0 set_fmax empty max 40 8 0
10 -228856 -33289 -1 79 256;
#X obj 104 181 nbx 3 14 -1e+37 1e+37 0 0 set_fmin empty min 40 8 0
10 -228856 -33289 -1 36 256;
#X obj 186 68 loadbang;
#X msg 186 164 36;
#X msg 186 148 79;
#X connect 0 0 4 0;
#X connect 1 0 2 0;
#X connect 2 0 0 0;
#X connect 3 0 4 0;
#X connect 5 0 3 0;
#X connect 8 0 9 0;
#X connect 8 0 10 0;
#X connect 9 0 7 0;
#X connect 10 0 6 0;
#X coords 0 -1 1 1 80 100 1 100 100;
#X restore 104 123 pd leapON;
#X obj 418 206 autoscale;
#X obj 435 174 nbx 5 14 -1e+37 1e+37 0 0 empty set_fmin empty 0 -8
0 10 -262144 -1 -1 36 256;
#X obj 452 190 nbx 5 14 -1e+37 1e+37 0 0 empty set_fmax empty 0 -8
0 10 -262144 -1 -1 79 256;
#X obj 418 230 int;
#N canvas 476 273 467 386 hand 0;
#X obj 12 -52 route \$1;
#X obj 12 20 unpack 0 0 0;
#X obj 13 74 unpack 0 0 0;
#X obj 12 -24 route direction palm_position palm_velocity palm_normal
sphere_radius sphere_center finger_count tool_count fingers;
#X obj 12 149 unpack 0 0 0;
#X obj 12 202 unpack 0 0 0;
#X obj 11 -79 r hand;
#X obj 47 117 outlet;
#X floatatom 113 139 5 0 0 0 x - -;
#X floatatom 113 155 5 0 0 0 y - -;
#X floatatom 113 172 5 0 0 0 z - -;
#X text 100 112 palm position;
#X obj 13 97 outlet;
#X connect 0 0 3 0;
#X connect 2 0 8 0;
#X connect 2 0 12 0;
#X connect 2 1 7 0;
#X connect 2 1 9 0;
#X connect 2 2 10 0;
#X connect 3 1 2 0;
#X connect 6 0 0 0;
#X coords 0 -1 1 1 100 100 1 100 100;
#X restore 325 103 pd hand;
#X obj 356 225 abs;
#X obj 325 283 expr ($f1 + $f2);
#X floatatom 325 303 5 0 0 0 - - -;
#X obj 325 322 s gainVibrato;
#X obj 443 250 s MIDInote;
#N canvas 178 23 1146 851 detect_note 0;
#X obj 835 101 inlet;
#X obj 836 136 clip 60 500;
#X obj 836 159 - 60;
#X obj 836 181 i;
#X floatatom 836 202 5 0 0 0 - - -;
#X obj 923 123 autoscale 36 84;
#X obj 923 146 i;
#X floatatom 923 168 5 0 0 0 - - -;
#X floatatom 134 1244 5 0 0 0 - - -;
#N canvas 980 358 152 204 evaluate_note 0;
#X obj 37 31 inlet;
#X obj 37 53 expr ($f1 < 9);
#X obj 37 76 max 0;
#X floatatom 37 99 5 0 0 0 - - -;
#X obj 37 121 sel 1;
#X obj 37 166 outlet;
#X msg 37 143 36;
#X connect 0 0 1 0;
#X connect 1 0 2 0;
#X connect 2 0 3 0;
#X connect 3 0 4 0;
#X connect 4 0 6 0;
#X connect 6 0 5 0;
#X restore 134 217 pd evaluate_note;
#N canvas 131 301 224 204 evaluate_note 0;
#X obj 37 31 inlet;
#X obj 37 166 outlet;
#X obj 37 76 max 0;
#X floatatom 37 97 5 0 0 0 - - -;
#X obj 37 55 expr ($f1 > 9 && $f1 < 18 );
#X obj 37 118 sel 1;
#X msg 37 138 37;
#X connect 0 0 4 0;
#X connect 2 0 3 0;
#X connect 3 0 5 0;
#X connect 4 0 2 0;
#X connect 5 0 6 0;
#X connect 6 0 1 0;
#X restore 144 238 pd evaluate_note;
#N canvas 1201 368 224 204 evaluate_note 0;
#X obj 37 31 inlet;
#X obj 37 166 outlet;
#X obj 37 76 max 0;
#X floatatom 37 97 5 0 0 0 - - -;
#X obj 37 118 sel 1;
#X obj 37 55 expr ($f1 > 18 && $f1 < 27 );
#X msg 37 138 38;
#X connect 0 0 5 0;
#X connect 2 0 3 0;
#X connect 3 0 4 0;
#X connect 4 0 6 0;
#X connect 5 0 2 0;
#X connect 6 0 1 0;
#X restore 157 258 pd evaluate_note;
#N canvas 1201 368 224 204 evaluate_note 0;
#X obj 37 31 inlet;
#X obj 37 166 outlet;
#X obj 37 76 max 0;
#X floatatom 37 97 5 0 0 0 - - -;
#X obj 37 118 sel 1;
#X obj 37 55 expr ($f1 > 27 && $f1 < 36 );
#X msg 37 138 39;
#X connect 0 0 5 0;
#X connect 2 0 3 0;
#X connect 3 0 4 0;
#X connect 4 0 6 0;
#X connect 5 0 2 0;
#X connect 6 0 1 0;
#X restore 167 279 pd evaluate_note;
#N canvas 1201 368 224 204 evaluate_note 0;
#X obj 37 31 inlet;
#X obj 37 166 outlet;
#X obj 37 76 max 0;
#X floatatom 37 97 5 0 0 0 - - -;
#X obj 37 118 sel 1;
#X obj 37 55 expr ($f1 > 36 && $f1 < 45 );
#X msg 37 138 40;
#X connect 0 0 5 0;
#X connect 2 0 3 0;
#X connect 3 0 4 0;
#X connect 4 0 6 0;
#X connect 5 0 2 0;
#X connect 6 0 1 0;
#X restore 177 299 pd evaluate_note;
#N canvas 1201 368 224 204 evaluate_note 0;
#X obj 37 31 inlet;
#X obj 37 166 outlet;
#X obj 37 76 max 0;
#X floatatom 37 97 5 0 0 0 - - -;
#X obj 37 118 sel 1;
#X obj 37 55 expr ($f1 > 45 && $f1 < 54 );
#X msg 37 138 41;
#X connect 0 0 5 0;
#X connect 2 0 3 0;
#X connect 3 0 4 0;
#X connect 4 0 6 0;
#X connect 5 0 2 0;
#X connect 6 0 1 0;
#X restore 187 320 pd evaluate_note;
#N canvas 1201 368 224 204 evaluate_note 0;
#X obj 37 31 inlet;
#X obj 37 166 outlet;
#X obj 37 76 max 0;
#X floatatom 37 97 5 0 0 0 - - -;
#X obj 37 118 sel 1;
#X obj 37 55 expr ($f1 > 54 && $f1 < 63 );
#X msg 37 138 42;
#X connect 0 0 5 0;
#X connect 2 0 3 0;
#X connect 3 0 4 0;
#X connect 4 0 6 0;
#X connect 5 0 2 0;
#X connect 6 0 1 0;
#X restore 197 339 pd evaluate_note;
#N canvas 1201 368 224 204 evaluate_note 0;
#X obj 37 31 inlet;
#X obj 37 166 outlet;
#X obj 37 76 max 0;
#X floatatom 37 97 5 0 0 0 - - -;
#X obj 37 118 sel 1;
#X obj 37 55 expr ($f1 > 63 && $f1 < 72 );
#X msg 37 138 43;
#X connect 0 0 5 0;
#X connect 2 0 3 0;
#X connect 3 0 4 0;
#X connect 4 0 6 0;
#X connect 5 0 2 0;
#X connect 6 0 1 0;
#X restore 207 360 pd evaluate_note;
#N canvas 1201 368 224 204 evaluate_note 0;
#X obj 37 31 inlet;
#X obj 37 166 outlet;
#X obj 37 76 max 0;
#X floatatom 37 97 5 0 0 0 - - -;
#X obj 37 118 sel 1;
#X obj 37 55 expr ($f1 > 72 && $f1 < 81 );
#X msg 37 138 44;
#X connect 0 0 5 0;
#X connect 2 0 3 0;
#X connect 3 0 4 0;
#X connect 4 0 6 0;
#X connect 5 0 2 0;
#X connect 6 0 1 0;
#X restore 217 381 pd evaluate_note;
#N canvas 1201 368 224 204 evaluate_note 0;
#X obj 37 31 inlet;
#X obj 37 166 outlet;
#X obj 37 76 max 0;
#X floatatom 37 97 5 0 0 0 - - -;
#X obj 37 118 sel 1;
#X obj 37 55 expr ($f1 > 81 && $f1 < 90 );
#X msg 37 138 45;
#X connect 0 0 5 0;
#X connect 2 0 3 0;
#X connect 3 0 4 0;
#X connect 4 0 6 0;
#X connect 5 0 2 0;
#X connect 6 0 1 0;
#X restore 227 403 pd evaluate_note;
#N canvas 1201 368 224 204 evaluate_note 0;
#X obj 37 31 inlet;
#X obj 37 166 outlet;
#X obj 37 76 max 0;
#X floatatom 37 97 5 0 0 0 - - -;
#X obj 37 118 sel 1;
#X obj 37 55 expr ($f1 > 90 && $f1 < 99 );
#X msg 37 138 46;
#X connect 0 0 5 0;
#X connect 2 0 3 0;
#X connect 3 0 4 0;
#X connect 4 0 6 0;
#X connect 5 0 2 0;
#X connect 6 0 1 0;
#X restore 235 424 pd evaluate_note;
#N canvas 1201 368 224 204 evaluate_note 0;
#X obj 37 31 inlet;
#X obj 37 166 outlet;
#X obj 37 76 max 0;
#X floatatom 37 97 5 0 0 0 - - -;
#X obj 37 118 sel 1;
#X obj 37 55 expr ($f1 > 99 && $f1 < 108 );
#X msg 37 138 47;
#X connect 0 0 5 0;
#X connect 2 0 3 0;
#X connect 3 0 4 0;
#X connect 4 0 6 0;
#X connect 5 0 2 0;
#X connect 6 0 1 0;
#X restore 248 444 pd evaluate_note;
#N canvas 1201 368 224 204 evaluate_note 0;
#X obj 37 31 inlet;
#X obj 37 166 outlet;
#X obj 37 76 max 0;
#X floatatom 37 97 5 0 0 0 - - -;
#X obj 37 118 sel 1;
#X obj 37 55 expr ($f1 > 108 && $f1 < 117 );
#X msg 37 138 48;
#X connect 0 0 5 0;
#X connect 2 0 3 0;
#X connect 3 0 4 0;
#X connect 4 0 6 0;
#X connect 5 0 2 0;
#X connect 6 0 1 0;
#X restore 258 465 pd evaluate_note;
#N canvas 1201 368 224 204 evaluate_note 0;
#X obj 37 31 inlet;
#X obj 37 166 outlet;
#X obj 37 76 max 0;
#X floatatom 37 97 5 0 0 0 - - -;
#X obj 37 118 sel 1;
#X obj 37 55 expr ($f1 > 117 && $f1 < 126 );
#X msg 37 138 49;
#X connect 0 0 5 0;
#X connect 2 0 3 0;
#X connect 3 0 4 0;
#X connect 4 0 6 0;
#X connect 5 0 2 0;
#X connect 6 0 1 0;
#X restore 268 485 pd evaluate_note;
#N canvas 1201 368 224 204 evaluate_note 0;
#X obj 37 31 inlet;
#X obj 37 166 outlet;
#X obj 37 76 max 0;
#X floatatom 37 97 5 0 0 0 - - -;
#X obj 37 118 sel 1;
#X obj 37 55 expr ($f1 > 126 && $f1 < 135 );
#X msg 37 138 50;
#X connect 0 0 5 0;
#X connect 2 0 3 0;
#X connect 3 0 4 0;
#X connect 4 0 6 0;
#X connect 5 0 2 0;
#X connect 6 0 1 0;
#X restore 278 506 pd evaluate_note;
#N canvas 1201 368 224 204 evaluate_note 0;
#X obj 37 31 inlet;
#X obj 37 166 outlet;
#X obj 37 76 max 0;
#X floatatom 37 97 5 0 0 0 - - -;
#X obj 37 118 sel 1;
#X obj 37 55 expr ($f1 > 135 && $f1 < 144 );
#X msg 37 138 51;
#X connect 0 0 5 0;
#X connect 2 0 3 0;
#X connect 3 0 4 0;
#X connect 4 0 6 0;
#X connect 5 0 2 0;
#X connect 6 0 1 0;
#X restore 288 525 pd evaluate_note;
#N canvas 1201 368 224 204 evaluate_note 0;
#X obj 37 31 inlet;
#X obj 37 166 outlet;
#X obj 37 76 max 0;
#X floatatom 37 97 5 0 0 0 - - -;
#X obj 37 118 sel 1;
#X obj 37 55 expr ($f1 > 144 && $f1 < 153 );
#X msg 37 138 52;
#X connect 0 0 5 0;
#X connect 2 0 3 0;
#X connect 3 0 4 0;
#X connect 4 0 6 0;
#X connect 5 0 2 0;
#X connect 6 0 1 0;
#X restore 298 546 pd evaluate_note;
#N canvas 1201 368 224 204 evaluate_note 0;
#X obj 37 31 inlet;
#X obj 37 166 outlet;
#X obj 37 76 max 0;
#X floatatom 37 97 5 0 0 0 - - -;
#X obj 37 118 sel 1;
#X obj 37 55 expr ($f1 > 153 && $f1 < 162 );
#X msg 37 138 53;
#X connect 0 0 5 0;
#X connect 2 0 3 0;
#X connect 3 0 4 0;
#X connect 4 0 6 0;
#X connect 5 0 2 0;
#X connect 6 0 1 0;
#X restore 308 567 pd evaluate_note;
#N canvas 1201 368 224 204 evaluate_note 0;
#X obj 37 31 inlet;
#X obj 37 166 outlet;
#X obj 37 76 max 0;
#X floatatom 37 97 5 0 0 0 - - -;
#X obj 37 118 sel 1;
#X obj 37 55 expr ($f1 > 162 && $f1 < 171 );
#X msg 37 138 54;
#X connect 0 0 5 0;
#X connect 2 0 3 0;
#X connect 3 0 4 0;
#X connect 4 0 6 0;
#X connect 5 0 2 0;
#X connect 6 0 1 0;
#X restore 318 589 pd evaluate_note;
#N canvas 1201 368 224 204 evaluate_note 0;
#X obj 37 31 inlet;
#X obj 37 166 outlet;
#X obj 37 76 max 0;
#X floatatom 37 97 5 0 0 0 - - -;
#X obj 37 118 sel 1;
#X obj 37 55 expr ($f1 > 171 && $f1 < 180 );
#X msg 37 138 55;
#X connect 0 0 5 0;
#X connect 2 0 3 0;
#X connect 3 0 4 0;
#X connect 4 0 6 0;
#X connect 5 0 2 0;
#X connect 6 0 1 0;
#X restore 324 610 pd evaluate_note;
#N canvas 1201 368 224 204 evaluate_note 0;
#X obj 37 31 inlet;
#X obj 37 166 outlet;
#X obj 37 76 max 0;
#X floatatom 37 97 5 0 0 0 - - -;
#X obj 37 118 sel 1;
#X obj 37 55 expr ($f1 > 180 && $f1 < 189 );
#X msg 37 138 56;
#X connect 0 0 5 0;
#X connect 2 0 3 0;
#X connect 3 0 4 0;
#X connect 4 0 6 0;
#X connect 5 0 2 0;
#X connect 6 0 1 0;
#X restore 338 631 pd evaluate_note;
#N canvas 1201 368 224 204 evaluate_note 0;
#X obj 37 31 inlet;
#X obj 37 166 outlet;
#X obj 37 76 max 0;
#X floatatom 37 97 5 0 0 0 - - -;
#X obj 37 118 sel 1;
#X obj 37 55 expr ($f1 > 189 && $f1 < 198 );
#X msg 37 138 57;
#X connect 0 0 5 0;
#X connect 2 0 3 0;
#X connect 3 0 4 0;
#X connect 4 0 6 0;
#X connect 5 0 2 0;
#X connect 6 0 1 0;
#X restore 351 651 pd evaluate_note;
#N canvas 1201 368 224 204 evaluate_note 0;
#X obj 37 31 inlet;
#X obj 37 166 outlet;
#X obj 37 76 max 0;
#X floatatom 37 97 5 0 0 0 - - -;
#X obj 37 118 sel 1;
#X obj 37 55 expr ($f1 > 198 && $f1 < 207 );
#X msg 37 138 58;
#X connect 0 0 5 0;
#X connect 2 0 3 0;
#X connect 3 0 4 0;
#X connect 4 0 6 0;
#X connect 5 0 2 0;
#X connect 6 0 1 0;
#X restore 361 672 pd evaluate_note;
#N canvas 1201 368 224 204 evaluate_note 0;
#X obj 37 31 inlet;
#X obj 37 166 outlet;
#X obj 37 76 max 0;
#X floatatom 37 97 5 0 0 0 - - -;
#X obj 37 118 sel 1;
#X obj 37 55 expr ($f1 > 207 && $f1 < 216 );
#X msg 37 138 59;
#X connect 0 0 5 0;
#X connect 2 0 3 0;
#X connect 3 0 4 0;
#X connect 4 0 6 0;
#X connect 5 0 2 0;
#X connect 6 0 1 0;
#X restore 371 692 pd evaluate_note;
#N canvas 1201 368 224 204 evaluate_note 0;
#X obj 37 31 inlet;
#X obj 37 166 outlet;
#X obj 37 76 max 0;
#X floatatom 37 97 5 0 0 0 - - -;
#X obj 37 118 sel 1;
#X obj 37 55 expr ($f1 > 216 && $f1 < 225 );
#X msg 37 138 60;
#X connect 0 0 5 0;
#X connect 2 0 3 0;
#X connect 3 0 4 0;
#X connect 4 0 6 0;
#X connect 5 0 2 0;
#X connect 6 0 1 0;
#X restore 381 713 pd evaluate_note;
#N canvas 1201 368 224 204 evaluate_note 0;
#X obj 37 31 inlet;
#X obj 37 166 outlet;
#X obj 37 76 max 0;
#X floatatom 37 97 5 0 0 0 - - -;
#X obj 37 118 sel 1;
#X obj 37 55 expr ($f1 > 225 && $f1 < 234 );
#X msg 37 138 61;
#X connect 0 0 5 0;
#X connect 2 0 3 0;
#X connect 3 0 4 0;
#X connect 4 0 6 0;
#X connect 5 0 2 0;
#X connect 6 0 1 0;
#X restore 391 732 pd evaluate_note;
#N canvas 1201 368 224 204 evaluate_note 0;
#X obj 37 31 inlet;
#X obj 37 166 outlet;
#X obj 37 76 max 0;
#X floatatom 37 97 5 0 0 0 - - -;
#X obj 37 118 sel 1;
#X obj 37 55 expr ($f1 > 234 && $f1 < 243 );
#X msg 37 138 62;
#X connect 0 0 5 0;
#X connect 2 0 3 0;
#X connect 3 0 4 0;
#X connect 4 0 6 0;
#X connect 5 0 2 0;
#X connect 6 0 1 0;
#X restore 401 753 pd evaluate_note;
#N canvas 1201 368 224 204 evaluate_note 0;
#X obj 37 31 inlet;
#X obj 37 166 outlet;
#X obj 37 76 max 0;
#X floatatom 37 97 5 0 0 0 - - -;
#X obj 37 118 sel 1;
#X obj 37 55 expr ($f1 > 243 && $f1 < 252 );
#X msg 37 138 63;
#X connect 0 0 5 0;
#X connect 2 0 3 0;
#X connect 3 0 4 0;
#X connect 4 0 6 0;
#X connect 5 0 2 0;
#X connect 6 0 1 0;
#X restore 411 774 pd evaluate_note;
#N canvas 1201 368 224 204 evaluate_note 0;
#X obj 37 31 inlet;
#X obj 37 166 outlet;
#X obj 37 76 max 0;
#X floatatom 37 97 5 0 0 0 - - -;
#X obj 37 118 sel 1;
#X obj 37 55 expr ($f1 > 252 && $f1 < 261 );
#X msg 37 138 64;
#X connect 0 0 5 0;
#X connect 2 0 3 0;
#X connect 3 0 4 0;
#X connect 4 0 6 0;
#X connect 5 0 2 0;
#X connect 6 0 1 0;
#X restore 421 796 pd evaluate_note;
#N canvas 1201 368 224 204 evaluate_note 0;
#X obj 37 31 inlet;
#X obj 37 166 outlet;
#X obj 37 76 max 0;
#X floatatom 37 97 5 0 0 0 - - -;
#X obj 37 118 sel 1;
#X obj 37 55 expr ($f1 > 261 && $f1 < 270 );
#X msg 37 138 65;
#X connect 0 0 5 0;
#X connect 2 0 3 0;
#X connect 3 0 4 0;
#X connect 4 0 6 0;
#X connect 5 0 2 0;
#X connect 6 0 1 0;
#X restore 427 817 pd evaluate_note;
#N canvas 1201 368 224 204 evaluate_note 0;
#X obj 37 31 inlet;
#X obj 37 166 outlet;
#X obj 37 76 max 0;
#X floatatom 37 97 5 0 0 0 - - -;
#X obj 37 118 sel 1;
#X obj 37 55 expr ($f1 > 270 && $f1 < 279 );
#X msg 37 138 66;
#X connect 0 0 5 0;
#X connect 2 0 3 0;
#X connect 3 0 4 0;
#X connect 4 0 6 0;
#X connect 5 0 2 0;
#X connect 6 0 1 0;
#X restore 439 839 pd evaluate_note;
#N canvas 1201 368 224 204 evaluate_note 0;
#X obj 37 31 inlet;
#X obj 37 166 outlet;
#X obj 37 76 max 0;
#X floatatom 37 97 5 0 0 0 - - -;
#X obj 37 118 sel 1;
#X obj 37 55 expr ($f1 > 288 && $f1 < 297 );
#X msg 37 138 67;
#X connect 0 0 5 0;
#X connect 2 0 3 0;
#X connect 3 0 4 0;
#X connect 4 0 6 0;
#X connect 5 0 2 0;
#X connect 6 0 1 0;
#X restore 452 859 pd evaluate_note;
#N canvas 1201 368 224 204 evaluate_note 0;
#X obj 37 31 inlet;
#X obj 37 166 outlet;
#X obj 37 76 max 0;
#X floatatom 37 97 5 0 0 0 - - -;
#X obj 37 118 sel 1;
#X obj 37 55 expr ($f1 > 297 && $f1 < 306 );
#X msg 37 138 68;
#X connect 0 0 5 0;
#X connect 2 0 3 0;
#X connect 3 0 4 0;
#X connect 4 0 6 0;
#X connect 5 0 2 0;
#X connect 6 0 1 0;
#X restore 462 880 pd evaluate_note;
#N canvas 1201 368 224 204 evaluate_note 0;
#X obj 37 31 inlet;
#X obj 37 166 outlet;
#X obj 37 76 max 0;
#X floatatom 37 97 5 0 0 0 - - -;
#X obj 37 118 sel 1;
#X obj 37 55 expr ($f1 > 306 && $f1 < 315 );
#X msg 37 138 69;
#X connect 0 0 5 0;
#X connect 2 0 3 0;
#X connect 3 0 4 0;
#X connect 4 0 6 0;
#X connect 5 0 2 0;
#X connect 6 0 1 0;
#X restore 472 900 pd evaluate_note;
#N canvas 1201 368 224 204 evaluate_note 0;
#X obj 37 31 inlet;
#X obj 37 166 outlet;
#X obj 37 76 max 0;
#X floatatom 37 97 5 0 0 0 - - -;
#X obj 37 118 sel 1;
#X obj 37 55 expr ($f1 > 315 && $f1 < 324 );
#X msg 37 138 70;
#X connect 0 0 5 0;
#X connect 2 0 3 0;
#X connect 3 0 4 0;
#X connect 4 0 6 0;
#X connect 5 0 2 0;
#X connect 6 0 1 0;
#X restore 482 921 pd evaluate_note;
#N canvas 1201 368 224 204 evaluate_note 0;
#X obj 37 31 inlet;
#X obj 37 166 outlet;
#X obj 37 76 max 0;
#X floatatom 37 97 5 0 0 0 - - -;
#X obj 37 118 sel 1;
#X obj 37 55 expr ($f1 > 324 && $f1 < 333 );
#X msg 37 138 71;
#X connect 0 0 5 0;
#X connect 2 0 3 0;
#X connect 3 0 4 0;
#X connect 4 0 6 0;
#X connect 5 0 2 0;
#X connect 6 0 1 0;
#X restore 492 940 pd evaluate_note;
#N canvas 1201 368 224 204 evaluate_note 0;
#X obj 37 31 inlet;
#X obj 37 166 outlet;
#X obj 37 76 max 0;
#X floatatom 37 97 5 0 0 0 - - -;
#X obj 37 118 sel 1;
#X obj 37 55 expr ($f1 > 333 && $f1 < 342 );
#X msg 37 138 72;
#X connect 0 0 5 0;
#X connect 2 0 3 0;
#X connect 3 0 4 0;
#X connect 4 0 6 0;
#X connect 5 0 2 0;
#X connect 6 0 1 0;
#X restore 502 961 pd evaluate_note;
#N canvas 1201 368 224 204 evaluate_note 0;
#X obj 37 31 inlet;
#X obj 37 166 outlet;
#X obj 37 76 max 0;
#X floatatom 37 97 5 0 0 0 - - -;
#X obj 37 118 sel 1;
#X obj 37 55 expr ($f1 > 342 && $f1 < 351 );
#X msg 37 138 73;
#X connect 0 0 5 0;
#X connect 2 0 3 0;
#X connect 3 0 4 0;
#X connect 4 0 6 0;
#X connect 5 0 2 0;
#X connect 6 0 1 0;
#X restore 512 982 pd evaluate_note;
#N canvas 1201 368 224 204 evaluate_note 0;
#X obj 37 31 inlet;
#X obj 37 166 outlet;
#X obj 37 76 max 0;
#X floatatom 37 97 5 0 0 0 - - -;
#X obj 37 118 sel 1;
#X obj 37 55 expr ($f1 > 351 && $f1 < 360 );
#X msg 37 138 74;
#X connect 0 0 5 0;
#X connect 2 0 3 0;
#X connect 3 0 4 0;
#X connect 4 0 6 0;
#X connect 5 0 2 0;
#X connect 6 0 1 0;
#X restore 522 1004 pd evaluate_note;
#N canvas 1201 368 224 204 evaluate_note 0;
#X obj 37 31 inlet;
#X obj 37 166 outlet;
#X obj 37 76 max 0;
#X floatatom 37 97 5 0 0 0 - - -;
#X obj 37 118 sel 1;
#X obj 37 55 expr ($f1 > 360 && $f1 < 369 );
#X msg 37 138 75;
#X connect 0 0 5 0;
#X connect 2 0 3 0;
#X connect 3 0 4 0;
#X connect 4 0 6 0;
#X connect 5 0 2 0;
#X connect 6 0 1 0;
#X restore 528 1025 pd evaluate_note;
#N canvas 1201 368 224 204 evaluate_note 0;
#X obj 37 31 inlet;
#X obj 37 166 outlet;
#X obj 37 76 max 0;
#X floatatom 37 97 5 0 0 0 - - -;
#X obj 37 118 sel 1;
#X obj 37 55 expr ($f1 > 369 && $f1 < 378 );
#X msg 37 138 76;
#X connect 0 0 5 0;
#X connect 2 0 3 0;
#X connect 3 0 4 0;
#X connect 4 0 6 0;
#X connect 5 0 2 0;
#X connect 6 0 1 0;
#X restore 541 1051 pd evaluate_note;
#N canvas 1201 368 224 204 evaluate_note 0;
#X obj 37 31 inlet;
#X obj 37 166 outlet;
#X obj 37 76 max 0;
#X floatatom 37 97 5 0 0 0 - - -;
#X obj 37 118 sel 1;
#X obj 37 55 expr ($f1 > 378 && $f1 < 387 );
#X msg 37 138 77;
#X connect 0 0 5 0;
#X connect 2 0 3 0;
#X connect 3 0 4 0;
#X connect 4 0 6 0;
#X connect 5 0 2 0;
#X connect 6 0 1 0;
#X restore 554 1071 pd evaluate_note;
#N canvas 1201 368 224 204 evaluate_note 0;
#X obj 37 31 inlet;
#X obj 37 166 outlet;
#X obj 37 76 max 0;
#X floatatom 37 97 5 0 0 0 - - -;
#X obj 37 118 sel 1;
#X obj 37 55 expr ($f1 > 387 && $f1 < 396 );
#X msg 37 138 78;
#X connect 0 0 5 0;
#X connect 2 0 3 0;
#X connect 3 0 4 0;
#X connect 4 0 6 0;
#X connect 5 0 2 0;
#X connect 6 0 1 0;
#X restore 564 1092 pd evaluate_note;
#N canvas 1201 368 224 204 evaluate_note 0;
#X obj 37 31 inlet;
#X obj 37 166 outlet;
#X obj 37 76 max 0;
#X floatatom 37 97 5 0 0 0 - - -;
#X obj 37 118 sel 1;
#X obj 37 55 expr ($f1 > 396 && $f1 < 405 );
#X msg 37 138 79;
#X connect 0 0 5 0;
#X connect 2 0 3 0;
#X connect 3 0 4 0;
#X connect 4 0 6 0;
#X connect 5 0 2 0;
#X connect 6 0 1 0;
#X restore 574 1112 pd evaluate_note;
#N canvas 1201 368 224 204 evaluate_note 0;
#X obj 37 31 inlet;
#X obj 37 166 outlet;
#X obj 37 76 max 0;
#X floatatom 37 97 5 0 0 0 - - -;
#X obj 37 118 sel 1;
#X obj 37 55 expr ($f1 > 405 && $f1 < 414 );
#X msg 37 138 80;
#X connect 0 0 5 0;
#X connect 2 0 3 0;
#X connect 3 0 4 0;
#X connect 4 0 6 0;
#X connect 5 0 2 0;
#X connect 6 0 1 0;
#X restore 584 1133 pd evaluate_note;
#N canvas 1201 368 224 204 evaluate_note 0;
#X obj 37 31 inlet;
#X obj 37 166 outlet;
#X obj 37 76 max 0;
#X floatatom 37 97 5 0 0 0 - - -;
#X obj 37 118 sel 1;
#X obj 37 55 expr ($f1 > 414 && $f1 < 423 );
#X msg 37 138 81;
#X connect 0 0 5 0;
#X connect 2 0 3 0;
#X connect 3 0 4 0;
#X connect 4 0 6 0;
#X connect 5 0 2 0;
#X connect 6 0 1 0;
#X restore 594 1152 pd evaluate_note;
#N canvas 1201 368 224 204 evaluate_note 0;
#X obj 37 31 inlet;
#X obj 37 166 outlet;
#X obj 37 76 max 0;
#X floatatom 37 97 5 0 0 0 - - -;
#X obj 37 118 sel 1;
#X obj 37 55 expr ($f1 > 423 && $f1 < 432 );
#X msg 37 138 82;
#X connect 0 0 5 0;
#X connect 2 0 3 0;
#X connect 3 0 4 0;
#X connect 4 0 6 0;
#X connect 5 0 2 0;
#X connect 6 0 1 0;
#X restore 604 1173 pd evaluate_note;
#N canvas 980 358 303 210 evaluate_note 0;
#X obj 37 31 inlet;
#X obj 37 76 max 0;
#X floatatom 37 99 5 0 0 0 - - -;
#X obj 37 121 sel 1;
#X obj 37 166 outlet;
#X obj 37 53 expr ($f1 > 432 && $f1 < 441);
#X msg 37 143 83;
#X connect 0 0 5 0;
#X connect 1 0 2 0;
#X connect 2 0 3 0;
#X connect 3 0 6 0;
#X connect 5 0 1 0;
#X connect 6 0 4 0;
#X restore 614 1198 pd evaluate_note;
#N canvas 980 358 303 210 evaluate_note 0;
#X obj 37 31 inlet;
#X obj 37 76 max 0;
#X floatatom 37 99 5 0 0 0 - - -;
#X obj 37 121 sel 1;
#X obj 37 166 outlet;
#X msg 37 143 84;
#X obj 37 53 expr ($f1 > 441);
#X connect 0 0 6 0;
#X connect 1 0 2 0;
#X connect 2 0 3 0;
#X connect 3 0 5 0;
#X connect 5 0 4 0;
#X connect 6 0 1 0;
#X restore 625 1218 pd evaluate_note;
#X obj 131 1271 outlet;
#X connect 0 0 1 0;
#X connect 1 0 2 0;
#X connect 2 0 3 0;
#X connect 3 0 4 0;
#X connect 4 0 5 0;
#X connect 4 0 9 0;
#X connect 4 0 10 0;
#X connect 4 0 11 0;
#X connect 4 0 12 0;
#X connect 4 0 13 0;
#X connect 4 0 14 0;
#X connect 4 0 15 0;
#X connect 4 0 16 0;
#X connect 4 0 17 0;
#X connect 4 0 18 0;
#X connect 4 0 19 0;
#X connect 4 0 20 0;
#X connect 4 0 21 0;
#X connect 4 0 22 0;
#X connect 4 0 23 0;
#X connect 4 0 24 0;
#X connect 4 0 25 0;
#X connect 4 0 26 0;
#X connect 4 0 27 0;
#X connect 4 0 28 0;
#X connect 4 0 29 0;
#X connect 4 0 30 0;
#X connect 4 0 31 0;
#X connect 4 0 32 0;
#X connect 4 0 33 0;
#X connect 4 0 34 0;
#X connect 4 0 35 0;
#X connect 4 0 36 0;
#X connect 4 0 37 0;
#X connect 4 0 38 0;
#X connect 4 0 39 0;
#X connect 4 0 40 0;
#X connect 4 0 41 0;
#X connect 4 0 42 0;
#X connect 4 0 43 0;
#X connect 4 0 44 0;
#X connect 4 0 45 0;
#X connect 4 0 46 0;
#X connect 4 0 47 0;
#X connect 4 0 48 0;
#X connect 4 0 49 0;
#X connect 4 0 50 0;
#X connect 4 0 51 0;
#X connect 4 0 52 0;
#X connect 4 0 53 0;
#X connect 4 0 54 0;
#X connect 4 0 55 0;
#X connect 4 0 56 0;
#X connect 4 0 57 0;
#X connect 5 0 6 0;
#X connect 6 0 7 0;
#X connect 8 0 58 0;
#X connect 9 0 8 0;
#X connect 10 0 8 0;
#X connect 11 0 8 0;
#X connect 12 0 8 0;
#X connect 13 0 8 0;
#X connect 14 0 8 0;
#X connect 15 0 8 0;
#X connect 16 0 8 0;
#X connect 17 0 8 0;
#X connect 18 0 8 0;
#X connect 19 0 8 0;
#X connect 20 0 8 0;
#X connect 21 0 8 0;
#X connect 22 0 8 0;
#X connect 23 0 8 0;
#X connect 24 0 8 0;
#X connect 25 0 8 0;
#X connect 26 0 8 0;
#X connect 27 0 8 0;
#X connect 28 0 8 0;
#X connect 29 0 8 0;
#X connect 30 0 8 0;
#X connect 31 0 8 0;
#X connect 32 0 8 0;
#X connect 33 0 8 0;
#X connect 34 0 8 0;
#X connect 35 0 8 0;
#X connect 36 0 8 0;
#X connect 37 0 8 0;
#X connect 38 0 8 0;
#X connect 39 0 8 0;
#X connect 40 0 8 0;
#X connect 41 0 8 0;
#X connect 42 0 8 0;
#X connect 43 0 8 0;
#X connect 44 0 8 0;
#X connect 45 0 8 0;
#X connect 46 0 8 0;
#X connect 47 0 8 0;
#X connect 48 0 8 0;
#X connect 49 0 8 0;
#X connect 50 0 8 0;
#X connect 51 0 8 0;
#X connect 52 0 8 0;
#X connect 53 0 8 0;
#X connect 54 0 8 0;
#X connect 55 0 8 0;
#X connect 56 0 8 0;
#X connect 57 0 8 0;
#X restore 443 230 pd detect_note;
#X connect 0 0 5 0;
#X connect 0 1 1 0;
#X connect 1 0 4 0;
#X connect 2 0 0 0;
#X connect 6 0 0 0;
#X connect 7 0 10 0;
#X connect 8 0 7 1;
#X connect 9 0 7 2;
#X connect 11 0 12 0;
#X connect 11 0 13 0;
#X connect 11 1 7 0;
#X connect 11 1 17 0;
#X connect 12 0 13 1;
#X connect 13 0 14 0;
#X connect 14 0 15 0;
#X connect 17 0 16 0;
#X coords 0 -1 1 1 220 280 1 100 100;
#X restore 285 87 pd leapmotion;
#N canvas 614 510 661 337 help 0;
#X text 105 122 *to pluck the string -----> blink or move your eyebrow
;
#X text 105 135 *the feedback is set by Mouth_Width;
#X text 105 147 *the CutOff freq is set by Mouth_Height;
#X text 105 173 *Plucking position is set by moving the head to the
left/right;
#X text 105 199 *Noisiness is set by going up or down;
#X text 105 212 *gain is set by going backwards or forwards;
#X text 105 227 *Panning is set by rotating your head;
#X text 105 239 *Vibrato is set by x position of your hand;
#X text 105 161 *string's freq is set by y position of the Leap Motion
;
#X coords 0 -1 1 1 370 170 1 100 100;
#X restore 105 427 pd help;
#N canvas 66 281 563 463 ON_OFF 0;
#X text -19 114 INIT messages;
#X text 189 140 CLEAR messages;
#X obj 103 104 bng 25 250 50 0 empty empty INIT 30 7 0 10 -4034 -1
-1;
#X obj 103 131 bng 25 250 50 0 empty empty CLEAR 30 7 0 10 -258113
-1 -1;
#X msg -17 129 \; io 1 \; gain 0.9 \; plposition 1 \; panning 50 \;
noisiness 0.9 \; rev_on_off 1 \; feedback 0.5 \; noiseLP 4000 \; pluckHP
6500 \; fcutoff 4000 \; MIDInote 60 \; pd dsp 1 \; leapMotion 1 \;
flags_lm 1 \; set_test 0 \; delratio 2.77 \;;
#X msg 192 156 \; io 0 \; gain 0 \; plposition 1 \; panning 50 \; noisiness
0.9 \; rev_on_off 0 \; feedback 0 \; noiseLP 2000 \; pluckHP 2000 \;
fcutoff 4000 \; MIDInote 60 \; pd dsp 0 \; leapMotion 0 \; flags_lm
0 \; set_test 0 \; delratio 2.77 \;;
#X connect 2 0 4 0;
#X connect 3 0 5 0;
#X coords 0 -1 1 1 70 60 2 100 100;
#X restore 90 27 pd ON_OFF;
#N canvas 365 70 349 484 output~ 0;
#X obj 43 93 dac~ 1 2;
#X obj 44 -17 *~;
#X obj 89 -17 *~;
#X obj 165 -160 hsl 128 15 0 100 0 0 panning panning Pan -2 -8 0 10
-262144 -1 -1 0 1;
#X obj 163 -138 expr sqrt($f1/100);
#X obj 122 -115 expr sqrt(1-($f1/100));
#X msg 122 -56 \$1 20;
#X msg 163 -56 \$1 20;
#X obj 122 -34 line~;
#X obj 163 -34 line~;
#X floatatom 163 -77 5 0 0 0 - - -;
#X floatatom 122 -77 5 0 0 0 - - -;
#X obj 122 -196 r panning;
#X floatatom 122 -168 5 0 0 0 - - -;
#X obj 44 -139 inlet~;
#X obj 89 -139 inlet~;
#X obj 105 142 vu 15 120 empty empty -1 -8 0 10 -1 -1 1 0;
#N canvas 708 469 92 138 toVUm 0;
#X obj -424 48 env~;
#X obj -424 70 - 100;
#X obj -424 26 inlet~;
#X obj -424 90 outlet;
#X connect 0 0 1 0;
#X connect 1 0 3 0;
#X connect 2 0 0 0;
#X restore 154 47 pd toVUm;
#X obj 155 142 vu 15 120 empty empty -1 -8 0 10 -1 -1 1 0;
#N canvas 708 469 92 138 toVUm 0;
#X obj -424 48 env~;
#X obj -424 70 - 100;
#X obj -424 26 inlet~;
#X obj -424 90 outlet;
#X connect 0 0 1 0;
#X connect 1 0 3 0;
#X connect 2 0 0 0;
#X restore 104 47 pd toVUm;
#N canvas 649 523 450 300 reverb 0;
#X obj -547 -160 freeverb~;
#X obj -496 -117 hip~ 30;
#X obj -547 -115 hip~ 30;
#N canvas 955 252 320 183 revSetting 0;
#X msg -216 -495 print;
#X obj -213 -585 loadbang;
#X msg -331 -535 roomsize 0.1;
#X msg -292 -513 width 1;
#X msg -228 -520 dry 1;
#X msg -238 -544 wet 0.2;
#X msg -374 -559 damping 1.1;
#X obj -238 -433 outlet;
#X obj -171 -518 TogEdge;
#X msg -171 -495 bypass 0;
#X msg -132 -474 bypass 1;
#X obj -171 -539 inlet;
#X connect 0 0 7 0;
#X connect 1 0 2 0;
#X connect 1 0 6 0;
#X connect 1 0 3 0;
#X connect 1 0 5 0;
#X connect 1 0 4 0;
#X connect 1 0 0 0;
#X connect 2 0 7 0;
#X connect 3 0 7 0;
#X connect 4 0 7 0;
#X connect 5 0 7 0;
#X connect 6 0 7 0;
#X connect 8 0 9 0;
#X connect 8 1 10 0;
#X connect 9 0 7 0;
#X connect 10 0 7 0;
#X connect 11 0 8 0;
#X restore -632 -161 pd revSetting;
#X obj -632 -195 tgl 30 0 empty rev_on_off empty 35 7 0 10 -191407
-1 -1 0 1;
#X text -632 -215 rev_ON_OFF;
#X obj -547 -138 *~ 0.2;
#X obj -496 -138 *~ 0.2;
#X obj -547 -205 inlet~;
#X obj -496 -206 inlet~;
#X obj -547 -92 outlet~;
#X obj -496 -91 outlet~;
#X connect 0 0 6 0;
#X connect 0 1 7 0;
#X connect 1 0 11 0;
#X connect 2 0 10 0;
#X connect 3 0 0 0;
#X connect 4 0 3 0;
#X connect 6 0 2 0;
#X connect 7 0 1 0;
#X connect 8 0 0 0;
#X connect 9 0 0 1;
#X restore -37 -17 pd reverb;
#X connect 1 0 0 0;
#X connect 1 0 19 0;
#X connect 2 0 0 1;
#X connect 2 0 17 0;
#X connect 4 0 10 0;
#X connect 5 0 11 0;
#X connect 6 0 8 0;
#X connect 7 0 9 0;
#X connect 8 0 1 1;
#X connect 9 0 2 1;
#X connect 10 0 7 0;
#X connect 11 0 6 0;
#X connect 12 0 13 0;
#X connect 13 0 4 0;
#X connect 13 0 5 0;
#X connect 14 0 1 0;
#X connect 14 0 20 0;
#X connect 15 0 2 0;
#X connect 15 0 20 1;
#X connect 17 0 18 0;
#X connect 19 0 16 0;
#X connect 20 0 0 0;
#X connect 20 1 0 1;
#X coords 0 -1 1 1 100 170 1 100 100;
#X restore 5 427 pd output~;
#N canvas 97 23 963 836 KSpluck~ 0;
#X obj -309 146 gate;
#X obj -277 125 key;
#X obj -277 146 sel 32;
#X obj -309 169 s sPluck;
#X obj -309 126 tgl 15 0 empty set_test empty 17 7 0 10 -262144 -1
-1 0 1;
#X text -313 106 TEST - SPACE BAR;
#X obj 164 168 hsl 127 15 0 1 0 0 noisiness noisiness Noisiness 135
7 0 10 -262144 -1 -1 0 1;
#X obj 164 219 hsl 128 15 0 1 0 0 gain gain Gain 135 7 0 10 -262144
-1 -1 0 1;
#X obj 164 185 hsl 128 15 0 1 0 0 plposition plposition Plucking_pos
135 7 0 10 -262144 -1 -1 0 1;
#X obj 164 202 hsl 128 15 0 1 0 0 feedback feedback Feedback 135 7
0 10 -262144 -1 -1 0 1;
#X obj 105 203 nbx 5 14 -1e+37 1e+37 0 0 empty feedback empty 0 -8
0 10 -262144 -1 -1 0 256;
#X obj 105 186 nbx 5 14 -1e+37 1e+37 0 0 empty plposition empty 0 -8
0 10 -262144 -1 -1 0 256;
#X obj 105 169 nbx 5 14 -1e+37 1e+37 0 0 empty noisiness empty 0 -8
0 10 -262144 -1 -1 0 256;
#X obj 105 220 nbx 5 14 -1e+37 1e+37 0 0 empty gain empty 0 -8 0 10
-262144 -1 -1 0 256;
#X obj 164 236 hsl 128 15 0.001 99.999 0 0 panning panning Pan 135
7 0 10 -262144 -1 -1 0 1;
#X obj 105 136 bng 30 250 50 0 empty sPluck empty 17 7 0 10 -262144
-258113 -33289;
#X obj 106 243 vu 15 120 toVUm empty -1 -8 0 10 -66577 -1 1 0;
#X obj 138 136 tgl 30 0 io io Gate 0 -6 0 10 -262144 -4034 -1 0 1;
#X obj 170 136 tgl 30 0 rev_on_off rev_on_off Rev 0 -6 0 10 -262144
-4034 -1 0 1;
#X obj 202 136 tgl 30 0 set_test set_test TEST 0 -6 0 10 -262144 -4034
-1 0 1;
#X obj 161 254 nbx 5 14 -1e+37 1e+37 0 0 noiseLP noiseLP Noise_LP 60
8 0 10 -262144 -1 -1 0 256;
#X obj 161 270 nbx 5 14 -1e+37 1e+37 0 0 pluckHP pluckHP Pluck_HP 60
8 0 10 -262144 -1 -1 0 256;
#X obj 161 302 nbx 2 45 -1e+37 1e+37 0 0 MIDInote MIDInote empty 75
15 0 45 -262144 -1 -1 0 256;
#X obj 161 286 nbx 5 14 -1e+37 1e+37 0 0 fcutoff fcutoff FcutOff 60
8 0 10 -262144 -1 -1 0 256;
#X text 266 302 MIDI_note;
#X obj 165 357 nbx 5 14 -1e+37 1e+37 0 0 delratio delratio Del_Ratio
59 8 0 10 -262144 -1 -1 0 256;
#X obj -458 445 *~;
#X obj -306 651 +~;
#X obj -306 785 *~;
#X obj -240 532 *~;
#X msg -240 469 \$1 100;
#X floatatom -174 493 10 0 0 2 fcutoff fcutoff -;
#X floatatom -240 448 9 0 0 0 - feedback -;
#X floatatom -199 232 5 0 0 0 - - -;
#X obj -169 193 loadbang;
#X obj -29 258 expr (1/$f1)*1000;
#X text -165 232 Freq;
#X obj -199 211 mtof;
#X obj -428 418 vline~;
#X obj -240 490 vline~;
#X floatatom -291 746 5 0 0 1 gain gain -;
#X obj -225 512 lop~ 5000;
#N canvas 487 314 109 161 whitenoise 0;
#X floatatom 26 53 8 0 0 0 - - -;
#X obj 26 32 inlet;
#X obj 11 127 outlet~;
#X obj 11 105 lop~;
#X obj 67 78 inlet;
#X obj 11 10 noise~;
#X obj 11 78 *~;
#X connect 0 0 6 1;
#X connect 1 0 0 0;
#X connect 3 0 2 0;
#X connect 4 0 3 1;
#X connect 5 0 6 0;
#X connect 6 0 3 0;
#X restore -458 247 pd whitenoise;
#X obj -455 193 hsl 120 15 0 1 0 0 empty noisiness Noisiness 0 7 0
10 -262144 -1 -1 0 1;
#X floatatom -458 213 5 0 0 0 - - -;
#X floatatom -383 227 8 0 0 2 Noise_LP noiseLP -;
#X obj -458 495 hip~ 100;
#X floatatom -413 476 8 0 0 2 Pluck_HP pluckHP -;
#X obj -306 726 hip~ 10;
#X obj -413 348 pack 0 0;
#X obj -368 326 *;
#X obj -350 262 hsl 128 15 0 1 0 0 empty plposition Plucking_position
0 7 0 10 -262144 -1 -1 0 1;
#X floatatom -353 281 5 0 0 0 - - -;
#X obj -427 683 delwrite~ del1 2000;
#X obj -368 303 bang;
#X floatatom -199 148 5 0 0 0 - - -;
#X obj -199 169 prepend set;
#X obj -458 269 +~;
#N canvas 789 407 72 119 gain 0;
#X msg 6 27 \$1 100;
#X obj 6 47 vline~;
#X floatatom 5 7 5 0 0 0 - - -;
#X obj 4 -15 inlet;
#X obj 6 67 outlet~;
#X connect 0 0 1 0;
#X connect 1 0 4 0;
#X connect 2 0 0 0;
#X connect 3 0 2 0;
#X restore -291 766 pd gain;
#X obj -458 469 +~;
#X obj -428 370 l;
#X obj -306 702 clip~ -1 1;
#X text -164 150 MIDI note;
#X msg -428 393 0 \, 1 \$2 \, 0 0 \$1;
#X obj -271 678 delwrite~ del2 2000;
#X obj -199 258 expr ((1/$f1)*1000)*$f2;
#X floatatom -64 237 5 0 0 2 Del_Ratio delratio -;
#X obj -279 650 +~;
#X obj -47 536 *~;
#X msg -47 473 \$1 100;
#X floatatom 19 495 10 0 0 2 fcutoff fcutoff -;
#X obj -47 494 vline~;
#X obj -32 516 lop~ 5000;
#X obj -306 682 +~;
#X obj 17 463 +~;
#X obj -160 414 delread~ del2 2000;
#X obj -175 437 delread~ del1 2000;
#X obj -175 459 +~;
#X msg -199 192 60;
#X floatatom -47 453 9 0 0 0 - feedback -;
#X obj -254 170 r sPluck;
#X obj -428 323 r sPluck;
#X obj -199 126 r MIDInote;
#X obj 32 434 delread~ del2 2000;
#X obj 17 412 delread~ del1 2000;
#X obj -306 881 outlet~;
#X obj -227 883 outlet~;
#N canvas 708 469 92 138 toVUm 0;
#X obj -424 48 env~;
#X obj -424 70 - 100;
#X obj -424 90 s toVUm;
#X obj -424 26 inlet~;
#X connect 0 0 1 0;
#X connect 1 0 2 0;
#X connect 3 0 0 0;
#X restore -266 802 pd toVUm;
#X connect 0 0 3 0;
#X connect 1 0 2 0;
#X connect 2 0 0 1;
#X connect 4 0 0 0;
#X connect 26 0 59 0;
#X connect 27 0 53 0;
#X connect 27 0 73 0;
#X connect 28 0 85 0;
#X connect 28 0 86 0;
#X connect 28 0 87 0;
#X connect 29 0 27 0;
#X connect 30 0 39 0;
#X connect 31 0 41 1;
#X connect 32 0 30 0;
#X connect 33 0 35 0;
#X connect 33 0 65 0;
#X connect 34 0 78 0;
#X connect 35 0 76 0;
#X connect 35 0 50 0;
#X connect 35 0 49 0;
#X connect 35 0 84 0;
#X connect 37 0 33 0;
#X connect 38 0 26 1;
#X connect 38 0 59 1;
#X connect 39 0 29 0;
#X connect 40 0 58 0;
#X connect 41 0 29 1;
#X connect 42 0 57 0;
#X connect 43 0 44 0;
#X connect 44 0 42 0;
#X connect 45 0 42 1;
#X connect 46 0 27 1;
#X connect 46 0 67 1;
#X connect 47 0 46 1;
#X connect 48 0 28 0;
#X connect 49 0 60 1;
#X connect 50 0 49 1;
#X connect 51 0 52 0;
#X connect 52 0 50 1;
#X connect 52 0 54 0;
#X connect 54 0 50 0;
#X connect 55 0 56 0;
#X connect 56 0 78 0;
#X connect 57 0 26 0;
#X connect 58 0 28 1;
#X connect 59 0 46 0;
#X connect 60 0 63 0;
#X connect 61 0 48 0;
#X connect 63 0 38 0;
#X connect 65 0 75 0;
#X connect 65 0 83 0;
#X connect 66 0 65 1;
#X connect 67 0 64 0;
#X connect 67 0 73 1;
#X connect 68 0 67 0;
#X connect 69 0 71 0;
#X connect 70 0 72 1;
#X connect 71 0 68 0;
#X connect 72 0 68 1;
#X connect 73 0 61 0;
#X connect 74 0 72 0;
#X connect 75 0 77 1;
#X connect 76 0 77 0;
#X connect 77 0 41 0;
#X connect 78 0 37 0;
#X connect 79 0 69 0;
#X connect 80 0 78 0;
#X connect 81 0 60 0;
#X connect 82 0 55 0;
#X connect 83 0 74 1;
#X connect 84 0 74 0;
#X coords 0 -1 1 1 280 280 1 100 100;
#X restore 5 87 pd KSpluck~;
#X text 4 -1 A metal plate played by face and hand;
#N canvas 191 190 464 365 vibrato 0;
#X obj 260 295 vd~ vibrato;
#X obj 260 224 osc~ 2;
#X obj 261 60 *~;
#X floatatom 286 40 5 0 0 1 Gain(0-100) #0-gain -;
#N canvas 809 85 138 124 mul 0;
#X obj 12 -535 line~;
#X obj 12 -558 pack 0 100;
#X obj 12 -581 * 0.01;
#X obj 12 -602 inlet;
#X obj 12 -513 outlet~;
#X text 63 -582 hundreadths;
#X floatatom 81 -557 5 0 0 0 - - -;
#X connect 0 0 4 0;
#X connect 1 0 0 0;
#X connect 2 0 1 0;
#X connect 2 0 6 0;
#X connect 3 0 2 0;
#X restore 286 59 pd mul;
#X floatatom 341 220 5 0 0 1 Depth(0-100) #0-depth -;
#N canvas 116 447 138 124 mul 0;
#X obj 12 -535 line~;
#X obj 12 -558 pack 0 100;
#X obj 12 -581 * 0.01;
#X obj 12 -602 inlet;
#X obj 12 -513 outlet~;
#X text 63 -582 hundreadths;
#X floatatom 81 -557 5 0 0 0 - - -;
#X connect 0 0 4 0;
#X connect 1 0 0 0;
#X connect 2 0 1 0;
#X connect 2 0 6 0;
#X connect 3 0 2 0;
#X restore 341 239 pd mul;
#X obj 341 263 *~ 2;
#X obj 341 286 +~;
#X obj 260 249 *~;
#X obj 260 271 +~;
#X obj 260 202 nbx 5 14 -1e+37 1e+37 0 0 empty \$0-speed LFO_speed
0 -8 0 10 -262144 -33289 -33289 10 256;
#X obj 106 141 hsl 128 15 0 100 0 0 \$0-gain gainVibrato Vibrato_Gain(0-100)
-2 -8 0 10 -262144 -1 -1 0 1;
#X obj 109 215 hsl 128 15 0 10 0 0 empty empty LFO_speed(0-10) -2 -8
0 10 -262144 -1 -1 12700 1;
#X obj 109 248 hsl 128 15 0 127 0 0 \$0-depth empty Depth(0-100) -2
-8 0 10 -262144 -1 -1 10000 1;
#X obj 34 187 loadbang;
#X obj 260 124 r vibSpeed;
#X obj 260 146 pack 0 100;
#X obj 260 167 line;
#N canvas 972 438 287 148 delay-writer 0;
#X obj 19 11 inlet~;
#X obj 19 95 outlet~;
#X obj 42 41 delwrite~ vibrato 500;
#X connect 0 0 2 0;
#X connect 0 0 1 0;
#X restore 261 85 pd delay-writer;
#X obj 260 329 outlet~;
#X obj 308 329 outlet~;
#X msg 77 215 10;
#X msg 76 248 100;
#X obj 261 17 inlet~;
#X connect 0 0 20 0;
#X connect 0 0 21 0;
#X connect 1 0 9 0;
#X connect 2 0 19 0;
#X connect 3 0 4 0;
#X connect 4 0 2 1;
#X connect 5 0 6 0;
#X connect 6 0 7 0;
#X connect 6 0 8 1;
#X connect 6 0 9 1;
#X connect 7 0 8 0;
#X connect 7 0 10 1;
#X connect 9 0 10 0;
#X connect 10 0 0 0;
#X connect 11 0 1 0;
#X connect 13 0 11 0;
#X connect 15 0 22 0;
#X connect 15 0 23 0;
#X connect 16 0 17 0;
#X connect 17 0 18 0;
#X connect 18 0 11 0;
#X connect 18 0 13 0;
#X connect 22 0 13 0;
#X connect 23 0 14 0;
#X connect 24 0 2 0;
#X coords 0 -1 1 1 150 60 1 100 100;
#X restore 5 367 pd vibrato;
#X obj 512 40 vsl 55 650 36 84 0 0 empty MIDInote empty 0 -9 0 10 -262144
-1 -1 0 1;
#X text 567 680 36;
#X text 567 667 37;
#X text 567 654 38;
#X text 567 640 39;
#X text 567 628 40;
#X text 567 613 41;
#X text 567 600 42;
#X text 567 585 43;
#X text 567 573 44;
#X text 567 559 45;
#X text 567 546 46;
#X text 567 532 47;
#X text 567 519 48;
#X text 567 492 50;
#X text 567 505 49;
#X text 567 478 51;
#X text 567 465 52;
#X text 567 451 53;
#X text 567 438 54;
#X text 567 425 55;
#X text 567 411 56;
#X text 567 397 57;
#X text 567 384 58;
#X text 567 370 59;
#X text 567 355 60;
#X text 567 343 61;
#X text 567 329 62;
#X text 567 316 63;
#X text 567 302 64;
#X text 567 289 65;
#X text 567 275 66;
#X text 567 261 67;
#X text 567 247 68;
#X text 567 235 69;
#X text 567 222 70;
#X text 567 209 71;
#X text 567 194 72;
#X text 567 181 73;
#X text 567 168 74;
#X text 567 155 75;
#X text 567 141 76;
#X text 567 127 77;
#X text 567 113 78;
#X text 567 99 79;
#X text 567 85 80;
#X text 567 72 81;
#X text 567 59 82;
#X text 567 46 83;
#X text 567 33 84;
#X connect 6 0 5 0;
#X connect 6 0 8 0;
#X connect 6 1 5 1;
#X connect 8 0 5 0;
#X connect 8 1 5 1;
