#N canvas 664 181 373 376 10;
#X obj 9 -1121 tgl 30 0 on_off on_off ON/OFF 35 7 0 15 -228856 -1 -1
1 1;
#X msg 127 -883 \; pd dsp 1;
#X obj 128 -1131 vu 15 120 toVU empty -1 -8 0 10 -66577 -1 1 0;
#X msg 127 -918 \; pd dsp 0;
#X obj 13 -1003 hsl 128 15 0 1 0 0 gain gain Gain 0 8 0 10 -262144
-1 -1 10960 1;
#X obj 10 -1056 tgl 30 0 rev_on_off rev_on_off Rev_ON_OFF 35 7 0 10
-191407 -1 -1 1 1;
#N canvas 1271 31 152 105 DSP_control 0;
#X text -2609 -13710 dsp ON/OFF;
#X floatatom -2626 -13647 5 0 0 0 - - cpumean;
#X obj -2626 -13690 dsp;
#X obj -2626 -13710 tgl 15 1 empty pd_dsp empty 8 -8 0 10 -262144 -1
-1 0 1;
#X text -2593 -13647 % mean-cpu-load;
#X floatatom -2611 -13668 5 0 0 0 - - cpupeak;
#X text -2576 -13667 % peak-cpu-load;
#X connect 2 0 1 0;
#X connect 2 1 5 0;
#X connect 3 0 2 0;
#X restore 10 -866 pd DSP_control;
#X obj 13 -985 hsl 128 15 0 0.5 0 0 feedback feedback FeedBack 0 8
0 10 -262144 -1 -1 12240 1;
#X obj 13 -949 hsl 128 15 0 1 0 0 plposition plposition Plucking_position
0 7 0 10 -262144 -1 -1 10086 1;
#X obj 13 -967 hsl 128 15 0 1 0 0 noisiness noisiness Noisiness 0 7
0 10 -262144 -1 -1 12330 1;
#X floatatom 145 -1004 5 0 0 0 - gain -;
#X floatatom 145 -986 5 0 0 0 - feedback -;
#X floatatom 145 -968 5 0 0 0 - noisiness -;
#X floatatom 145 -950 5 0 0 0 - plposition -;
#X obj 10 -931 nbx 5 14 -1e+37 1e+37 0 0 fcutoff fcutoff fcutoff 59
8 0 10 -262144 -1 -1 250 256;
#X obj 10 -914 nbx 5 14 -1e+37 1e+37 0 0 noiseLP noiseLP Noise_LP 59
8 0 10 -262144 -1 -1 2000 256;
#X obj 10 -898 nbx 5 14 -1e+37 1e+37 0 0 pluckHP pluckHP Pluck_HP 59
8 0 10 -262144 -1 -1 2000 256;
#X obj 10 -1020 nbx 5 14 -1e+37 1e+37 0 0 MIDInote MIDInote MIDI_Note
59 8 0 10 -262144 -1 -1 51 256;
#X obj 10 -1089 nbx 5 14 -1e+37 1e+37 0 0 empty cpupeak CPU_Peak 60
8 0 10 -262144 -1 -1 10 256;
#X obj 10 -1073 nbx 5 14 -1e+37 1e+37 0 0 empty cpumean CPU_Mean 60
8 0 10 -262144 -1 -1 9.49 256;
#X obj 10 -882 nbx 5 14 -1e+37 1e+37 0 0 delratio delratio Del_Ratio
59 8 0 10 -262144 -1 -1 2.77 256;
#X text 8 -824 TRY! fcutoff 200 \, 250 \, 500 \, 1000 \, 2000 \, 4000
\, 8000 \, 18000;
#X text 9 -810 RATIO 0.001 \, 0.02 \, 0.05 \, 0.11 \, 0.17 \, 0.27
\, 0.47 \, 0.77 \, 0.87 \, 0.97 \, 1.77 \, 2.77;
#N canvas 476 24 859 746 slab 0;
#X obj 21 345 *~;
#X obj 162 50 gate;
#X obj 194 26 key;
#X obj 194 50 sel 32;
#X obj 173 551 +~;
#X obj 173 685 *~;
#X obj 239 432 *~;
#X msg 239 369 \$1 100;
#X floatatom 305 393 10 0 0 2 fcutoff fcutoff -;
#X floatatom 239 348 9 0 0 0 - feedback -;
#X floatatom 280 132 5 0 0 0 - - -;
#X obj 310 93 loadbang;
#X obj 450 158 expr (1/$f1)*1000;
#X text 314 132 Freq;
#X obj 162 91 s sPluck;
#X obj 332 807 dac~ 1 2;
#X obj 280 111 mtof;
#X obj 69 725 freeverb~;
#X obj 120 768 hip~ 30;
#X obj 69 768 hip~ 30;
#X obj 170 806 throw~ dac_1;
#X obj 252 808 throw~ dac_2;
#X obj 332 767 catch~ dac_1;
#X obj 377 786 catch~ dac_2;
#X obj 51 318 vline~;
#X obj 239 390 vline~;
#N canvas 836 257 320 183 revSetting 0;
#X msg -216 -495 print;
#X obj -213 -585 loadbang;
#X msg -331 -535 roomsize 0.1;
#X msg -292 -513 width 1;
#X msg -228 -520 dry 1;
#X msg -238 -544 wet 0.2;
#X msg -374 -559 damping 1.1;
#X obj -238 -433 outlet;
#X obj -171 -518 TogEdge;
#X msg -171 -495 bypass 0;
#X msg -132 -474 bypass 1;
#X obj -171 -539 inlet;
#X connect 0 0 7 0;
#X connect 1 0 2 0;
#X connect 1 0 6 0;
#X connect 1 0 3 0;
#X connect 1 0 5 0;
#X connect 1 0 4 0;
#X connect 1 0 0 0;
#X connect 2 0 7 0;
#X connect 3 0 7 0;
#X connect 4 0 7 0;
#X connect 5 0 7 0;
#X connect 6 0 7 0;
#X connect 8 0 9 0;
#X connect 8 1 10 0;
#X connect 9 0 7 0;
#X connect 10 0 7 0;
#X connect 11 0 8 0;
#X restore 69 703 pd revSetting;
#X floatatom 188 646 5 0 0 1 gain gain -;
#X obj 254 412 lop~ 5000;
#N canvas 487 314 109 161 whitenoise 0;
#X floatatom 26 53 8 0 0 0 - - -;
#X obj 26 32 inlet;
#X obj 11 127 outlet~;
#X obj 11 105 lop~;
#X obj 67 78 inlet;
#X obj 11 10 noise~;
#X obj 11 78 *~;
#X connect 0 0 6 1;
#X connect 1 0 0 0;
#X connect 3 0 2 0;
#X connect 4 0 3 1;
#X connect 5 0 6 0;
#X connect 6 0 3 0;
#X restore 21 147 pd whitenoise;
#X obj 24 93 hsl 120 15 0 1 0 0 empty noisiness Noisiness 0 7 0 10
-262144 -1 -1 11553 1;
#X floatatom 21 113 5 0 0 0 - - -;
#X floatatom 96 127 8 0 0 2 Noise_LP noiseLP -;
#X obj 21 395 hip~ 100;
#X floatatom 66 376 8 0 0 2 Pluck_HP pluckHP -;
#X obj 173 626 hip~ 10;
#X obj 66 248 pack 0 0;
#X obj 111 226 *;
#X obj 129 162 hsl 128 15 0 1 0 0 empty plposition Plucking_position
0 7 0 10 -262144 -1 -1 10086 1;
#X floatatom 126 181 5 0 0 0 - - -;
#X obj 52 583 delwrite~ del1 2000;
#X obj 111 203 bang;
#X floatatom 280 48 5 0 0 0 - - -;
#X obj 280 69 prepend set;
#X obj 21 169 +~;
#N canvas 789 407 72 119 gain 0;
#X msg 6 27 \$1 100;
#X obj 6 47 vline~;
#X floatatom 5 7 5 0 0 0 - - -;
#X obj 4 -15 inlet;
#X obj 6 67 outlet~;
#X connect 0 0 1 0;
#X connect 1 0 4 0;
#X connect 2 0 0 0;
#X connect 3 0 2 0;
#X restore 188 666 pd gain;
#X obj 21 369 +~;
#X obj 51 270 l;
#X obj 69 747 *~ 0.2;
#X obj 120 747 *~ 0.2;
#X obj 173 602 clip~ -1 1;
#X text 315 50 MIDI note;
#X msg 51 293 0 \, 1 \$2 \, 0 0 \$1;
#X obj 208 578 delwrite~ del2 2000;
#X obj 280 158 expr ((1/$f1)*1000)*$f2;
#X floatatom 415 137 5 0 0 2 Del_Ratio delratio -;
#X obj 200 550 +~;
#X obj 432 436 *~;
#X msg 432 373 \$1 100;
#X floatatom 498 395 10 0 0 2 fcutoff fcutoff -;
#X obj 432 394 vline~;
#X obj 447 416 lop~ 5000;
#X obj 173 582 +~;
#X obj 496 363 +~;
#X obj 319 314 delread~ del2 2000;
#X obj 304 337 delread~ del1 2000;
#X obj 304 359 +~;
#X msg 280 92 51;
#X floatatom 432 353 9 0 0 0 - feedback -;
#X obj 225 70 r sPluck;
#X obj 51 223 r sPluck;
#X obj 162 71 bang;
#X obj 280 26 r MIDInote;
#X obj 69 666 r rev_on_off;
#X obj 69 685 tgl 15 0 empty empty empty 17 7 0 10 -262144 -1 -1 1
1;
#X obj 198 708 env~;
#X obj 198 730 - 100;
#X obj 198 752 s toVU;
#X obj 162 7 r on_off;
#X obj 511 334 delread~ del2 2000;
#X obj 496 312 delread~ del1 2000;
#X connect 0 0 46 0;
#X connect 1 0 71 0;
#X connect 2 0 3 0;
#X connect 3 0 1 1;
#X connect 4 0 40 0;
#X connect 4 0 62 0;
#X connect 5 0 20 0;
#X connect 5 0 21 0;
#X connect 5 0 17 0;
#X connect 5 0 17 1;
#X connect 5 0 75 0;
#X connect 6 0 4 0;
#X connect 7 0 25 0;
#X connect 8 0 28 1;
#X connect 9 0 7 0;
#X connect 10 0 12 0;
#X connect 10 0 54 0;
#X connect 11 0 67 0;
#X connect 12 0 65 0;
#X connect 12 0 37 0;
#X connect 12 0 36 0;
#X connect 12 0 80 0;
#X connect 16 0 10 0;
#X connect 17 0 48 0;
#X connect 17 1 49 0;
#X connect 18 0 21 0;
#X connect 19 0 20 0;
#X connect 22 0 15 0;
#X connect 23 0 15 1;
#X connect 24 0 0 1;
#X connect 24 0 46 1;
#X connect 25 0 6 0;
#X connect 26 0 17 0;
#X connect 27 0 45 0;
#X connect 28 0 6 1;
#X connect 29 0 44 0;
#X connect 30 0 31 0;
#X connect 31 0 29 0;
#X connect 32 0 29 1;
#X connect 33 0 4 1;
#X connect 33 0 56 1;
#X connect 34 0 33 1;
#X connect 35 0 5 0;
#X connect 36 0 47 1;
#X connect 37 0 36 1;
#X connect 38 0 39 0;
#X connect 39 0 37 1;
#X connect 39 0 41 0;
#X connect 41 0 37 0;
#X connect 42 0 43 0;
#X connect 43 0 67 0;
#X connect 44 0 0 0;
#X connect 45 0 5 1;
#X connect 46 0 33 0;
#X connect 47 0 52 0;
#X connect 48 0 19 0;
#X connect 49 0 18 0;
#X connect 50 0 35 0;
#X connect 52 0 24 0;
#X connect 54 0 64 0;
#X connect 54 0 79 0;
#X connect 55 0 54 1;
#X connect 56 0 53 0;
#X connect 56 0 62 1;
#X connect 57 0 56 0;
#X connect 58 0 60 0;
#X connect 59 0 61 1;
#X connect 60 0 57 0;
#X connect 61 0 57 1;
#X connect 62 0 50 0;
#X connect 63 0 61 0;
#X connect 64 0 66 1;
#X connect 65 0 66 0;
#X connect 66 0 28 0;
#X connect 67 0 16 0;
#X connect 68 0 58 0;
#X connect 69 0 67 0;
#X connect 70 0 47 0;
#X connect 71 0 14 0;
#X connect 72 0 42 0;
#X connect 73 0 74 0;
#X connect 74 0 26 0;
#X connect 75 0 76 0;
#X connect 76 0 77 0;
#X connect 78 0 1 0;
#X connect 79 0 63 1;
#X connect 80 0 63 0;
#X restore 10 -846 pd slab;
#X msg 193 -1025 \; gain 0.8 \; plposition 0.18 \; noisiness 0.9 \;
rev_on_off 1 \; feedback 0.474 \; noiseLP 2000 \; pluckHP 2000 \; fcutoff
4000 \; MIDInote 48 \; delratio 2.77 \; pd dsp 1 \; on_off 1 \;;
#X text 190 -1044 Space Bar to hit the Slab;
#X coords 0 376 1 375 85 60 0;
